<svg width="418" height="86" viewBox="0 0 418 86" fill="none" xmlns="http://www.w3.org/2000/svg">
<path d="M59.2847 20.091L51.9742 15.8703C48.8469 14.0648 44.8955 16.0682 44.5037 19.6581L43.2006 31.5999C42.7031 36.159 48.0935 38.9266 51.5085 35.8654L60.1221 28.1443C62.655 25.8739 62.2305 21.7918 59.2847 20.091Z" fill="#DD6C03"/>
<path d="M55.7088 12.383C56.5941 14.9618 59.4135 16.3227 61.9832 15.4115C65.9258 14.0137 66.4187 8.63772 62.7961 6.54621C58.8714 4.28026 54.2373 8.0967 55.7088 12.383Z" fill="#1E9B58"/>
<circle cx="13.0841" cy="32.4485" r="13.0841" fill="#12D66C"/>
<circle cx="23.028" cy="25.6448" r="13.0841" fill="#2ABD6E"/>
<circle cx="31.9251" cy="35.5887" r="13.0841" fill="#45D687"/>
<rect y="35.5887" width="63.3269" height="19.8878" fill="#C8A64F"/>
<rect y="59.6634" width="63.3269" height="14.6542" fill="#C8A64F"/>
<path d="M0 77.9811H63.3269V81.8315C63.3269 84.0407 61.5361 85.8315 59.3269 85.8315H4C1.79086 85.8315 0 84.0407 0 81.8315V77.9811Z" fill="#C8A64F"/>
<circle cx="35.8504" cy="11.2523" r="3.92522" fill="#DD4141"/>
<path d="M123.766 83.64C121.699 83.64 119.86 83.2267 118.248 82.4C116.677 81.6147 115.437 80.4367 114.528 78.866C113.619 77.2953 113.164 75.4147 113.164 73.224C113.164 72.6867 113.185 72.1287 113.226 71.55C113.267 71.0127 113.329 70.4547 113.412 69.876C110.023 70.0827 106.881 69.69 103.988 68.698C101.095 67.706 98.5733 66.2387 96.424 64.296C94.2747 62.312 92.6007 59.9353 91.402 57.166C90.2033 54.3553 89.604 51.276 89.604 47.928C89.604 44.8693 90.1207 42.0173 91.154 39.372C92.1873 36.6853 93.6753 34.3293 95.618 32.304C97.5607 30.2787 99.896 28.708 102.624 27.592C105.393 26.4347 108.452 25.856 111.8 25.856C115.148 25.856 118.186 26.414 120.914 27.53C123.642 28.646 125.977 30.2167 127.92 32.242C129.863 34.226 131.351 36.52 132.384 39.124C133.459 41.728 133.996 44.5387 133.996 47.556V72.542C133.996 74.774 133.583 76.7167 132.756 78.37C131.929 80.0647 130.751 81.3667 129.222 82.276C127.734 83.1853 125.915 83.64 123.766 83.64ZM123.394 78.308C124.758 78.308 125.874 77.812 126.742 76.82C127.61 75.8693 128.044 74.4847 128.044 72.666V57.91C125.936 59.274 124.262 60.6587 123.022 62.064C121.782 63.4693 120.852 64.8333 120.232 66.156C119.653 67.4787 119.261 68.698 119.054 69.814C118.889 70.93 118.806 71.86 118.806 72.604C118.806 73.8027 119.013 74.8153 119.426 75.642C119.881 76.51 120.459 77.1713 121.162 77.626C121.865 78.0807 122.609 78.308 123.394 78.308ZM111.8 64.792C112.461 64.792 113.081 64.7713 113.66 64.73C114.239 64.6473 114.859 64.5233 115.52 64.358C116.099 62.9527 116.905 61.5267 117.938 60.08C119.013 58.6333 120.356 57.2073 121.968 55.802C123.621 54.3553 125.647 53.012 128.044 51.772V47.556C128.044 45.2 127.631 43.03 126.804 41.046C126.019 39.0207 124.882 37.2847 123.394 35.838C121.947 34.35 120.232 33.1927 118.248 32.366C116.264 31.498 114.115 31.064 111.8 31.064C109.444 31.064 107.274 31.498 105.29 32.366C103.347 33.1927 101.632 34.3707 100.144 35.9C98.6973 37.4293 97.5607 39.2273 96.734 41.294C95.9487 43.3193 95.556 45.5307 95.556 47.928C95.556 50.3253 95.9487 52.5573 96.734 54.624C97.5607 56.6493 98.6973 58.4267 100.144 59.956C101.632 61.4853 103.347 62.684 105.29 63.552C107.274 64.3787 109.444 64.792 111.8 64.792Z" fill="white"/>
<path d="M142.32 70V47.37C142.32 44.5593 143.106 42.3687 144.676 40.798C146.288 39.186 148.5 38.38 151.31 38.38H157.82V43.278H152.364C151 43.278 149.926 43.6707 149.14 44.456C148.396 45.2413 148.024 46.3367 148.024 47.742V70H142.32Z" fill="white"/>
<path d="M179.15 70C175.678 70 172.599 69.3593 169.912 68.078C167.226 66.7553 165.118 64.916 163.588 62.56C162.1 60.1627 161.356 57.3727 161.356 54.19C161.356 51.0487 161.997 48.238 163.278 45.758C164.56 43.2367 166.337 41.2527 168.61 39.806C170.884 38.3593 173.529 37.636 176.546 37.636C179.812 37.636 182.519 38.3387 184.668 39.744C186.859 41.1493 188.492 43.0507 189.566 45.448C190.641 47.804 191.178 50.4493 191.178 53.384C191.178 53.8387 191.158 54.314 191.116 54.81C191.116 55.306 191.075 55.74 190.992 56.112H167.432C167.639 58.0547 168.28 59.708 169.354 61.072C170.429 62.3947 171.793 63.4073 173.446 64.11C175.141 64.7713 177.001 65.102 179.026 65.102H187.272V70H179.15ZM167.37 52.082H185.412C185.412 51.2967 185.33 50.47 185.164 49.602C184.999 48.6927 184.71 47.8247 184.296 46.998C183.883 46.13 183.325 45.3653 182.622 44.704C181.961 44.0013 181.114 43.4433 180.08 43.03C179.088 42.6167 177.91 42.41 176.546 42.41C175.1 42.41 173.818 42.6993 172.702 43.278C171.628 43.8153 170.698 44.5593 169.912 45.51C169.127 46.4193 168.528 47.4527 168.114 48.61C167.701 49.7673 167.453 50.9247 167.37 52.082Z" fill="white"/>
<path d="M214.51 70C211.038 70 207.958 69.3593 205.272 68.078C202.585 66.7553 200.477 64.916 198.948 62.56C197.46 60.1627 196.716 57.3727 196.716 54.19C196.716 51.0487 197.356 48.238 198.638 45.758C199.919 43.2367 201.696 41.2527 203.97 39.806C206.243 38.3593 208.888 37.636 211.906 37.636C215.171 37.636 217.878 38.3387 220.028 39.744C222.218 41.1493 223.851 43.0507 224.926 45.448C226 47.804 226.538 50.4493 226.538 53.384C226.538 53.8387 226.517 54.314 226.476 54.81C226.476 55.306 226.434 55.74 226.352 56.112H202.792C202.998 58.0547 203.639 59.708 204.714 61.072C205.788 62.3947 207.152 63.4073 208.806 64.11C210.5 64.7713 212.36 65.102 214.386 65.102H222.632V70H214.51ZM202.73 52.082H220.772C220.772 51.2967 220.689 50.47 220.524 49.602C220.358 48.6927 220.069 47.8247 219.656 46.998C219.242 46.13 218.684 45.3653 217.982 44.704C217.32 44.0013 216.473 43.4433 215.44 43.03C214.448 42.6167 213.27 42.41 211.906 42.41C210.459 42.41 209.178 42.6993 208.062 43.278C206.987 43.8153 206.057 44.5593 205.272 45.51C204.486 46.4193 203.887 47.4527 203.474 48.61C203.06 49.7673 202.812 50.9247 202.73 52.082Z" fill="white"/>
<path d="M233.811 70V51.71C233.811 48.8993 234.431 46.44 235.671 44.332C236.952 42.224 238.709 40.5913 240.941 39.434C243.173 38.2353 245.715 37.636 248.567 37.636C251.46 37.636 254.002 38.2353 256.193 39.434C258.425 40.5913 260.161 42.224 261.401 44.332C262.682 46.44 263.323 48.8993 263.323 51.71V70H257.619V51.772C257.619 49.8707 257.185 48.238 256.317 46.874C255.49 45.4687 254.374 44.394 252.969 43.65C251.605 42.906 250.138 42.534 248.567 42.534C246.996 42.534 245.508 42.906 244.103 43.65C242.739 44.394 241.623 45.4687 240.755 46.874C239.928 48.238 239.515 49.8707 239.515 51.772V70H233.811Z" fill="white"/>
<path d="M291.91 70C288.603 69.9587 285.586 69.38 282.858 68.264C280.13 67.1067 277.774 65.536 275.79 63.552C273.847 61.568 272.338 59.274 271.264 56.67C270.23 54.066 269.714 51.276 269.714 48.3C269.714 45.324 270.23 42.534 271.264 39.93C272.338 37.326 273.847 35.032 275.79 33.048C277.774 31.064 280.13 29.514 282.858 28.398C285.586 27.2407 288.603 26.6413 291.91 26.6H297.49V31.87H292.096C289.74 31.87 287.57 32.304 285.586 33.172C283.602 33.9987 281.866 35.156 280.378 36.644C278.931 38.0907 277.794 39.806 276.968 41.79C276.141 43.774 275.728 45.944 275.728 48.3C275.728 50.6147 276.141 52.7847 276.968 54.81C277.794 56.794 278.931 58.53 280.378 60.018C281.866 61.4647 283.602 62.6013 285.586 63.428C287.57 64.2547 289.74 64.6887 292.096 64.73H297.49V70H291.91Z" fill="white"/>
<path d="M304.041 70V47.37C304.041 44.5593 304.827 42.3687 306.397 40.798C308.009 39.186 310.221 38.38 313.031 38.38H319.541V43.278H314.085C312.721 43.278 311.647 43.6707 310.861 44.456C310.117 45.2413 309.745 46.3367 309.745 47.742V70H304.041Z" fill="white"/>
<path d="M337.957 70.744C334.898 70.744 332.253 70.0207 330.021 68.574C327.789 67.086 326.074 65.0813 324.875 62.56C323.676 60.0387 323.077 57.2487 323.077 54.19C323.077 51.09 323.738 48.3 325.061 45.82C326.384 43.2987 328.285 41.3147 330.765 39.868C333.245 38.38 336.221 37.636 339.693 37.636C343.041 37.636 345.914 38.3593 348.311 39.806C350.708 41.2527 352.548 43.216 353.829 45.696C355.152 48.176 355.813 50.9453 355.813 54.004V70H350.047V63.552H349.923C349.303 64.7507 348.456 65.908 347.381 67.024C346.348 68.0987 345.046 68.9873 343.475 69.69C341.904 70.3927 340.065 70.744 337.957 70.744ZM339.445 65.846C341.512 65.846 343.33 65.35 344.901 64.358C346.513 63.3247 347.753 61.9193 348.621 60.142C349.53 58.3233 349.985 56.298 349.985 54.066C349.985 51.8753 349.551 49.912 348.683 48.176C347.856 46.44 346.658 45.076 345.087 44.084C343.516 43.0507 341.677 42.534 339.569 42.534C337.337 42.534 335.415 43.0507 333.803 44.084C332.232 45.1173 331.013 46.5227 330.145 48.3C329.318 50.036 328.905 52.02 328.905 54.252C328.905 56.4013 329.318 58.3647 330.145 60.142C330.972 61.878 332.17 63.2627 333.741 64.296C335.312 65.3293 337.213 65.846 339.445 65.846Z" fill="white"/>
<path d="M375.683 70C372.872 70 370.661 69.194 369.049 67.582C367.478 65.97 366.693 63.7793 366.693 61.01V30.444H372.397V60.638C372.397 62.002 372.769 63.0973 373.513 63.924C374.298 64.7093 375.373 65.102 376.737 65.102H383.123V70H375.683ZM361.237 43.278V38.38H383.247V43.278H361.237Z" fill="white"/>
<path d="M405.232 70C401.76 70 398.681 69.3593 395.994 68.078C393.308 66.7553 391.2 64.916 389.67 62.56C388.182 60.1627 387.438 57.3727 387.438 54.19C387.438 51.0487 388.079 48.238 389.36 45.758C390.642 43.2367 392.419 41.2527 394.692 39.806C396.966 38.3593 399.611 37.636 402.628 37.636C405.894 37.636 408.601 38.3387 410.75 39.744C412.941 41.1493 414.574 43.0507 415.648 45.448C416.723 47.804 417.26 50.4493 417.26 53.384C417.26 53.8387 417.24 54.314 417.198 54.81C417.198 55.306 417.157 55.74 417.074 56.112H393.514C393.721 58.0547 394.362 59.708 395.436 61.072C396.511 62.3947 397.875 63.4073 399.528 64.11C401.223 64.7713 403.083 65.102 405.108 65.102H413.354V70H405.232ZM393.452 52.082H411.494C411.494 51.2967 411.412 50.47 411.246 49.602C411.081 48.6927 410.792 47.8247 410.378 46.998C409.965 46.13 409.407 45.3653 408.704 44.704C408.043 44.0013 407.196 43.4433 406.162 43.03C405.17 42.6167 403.992 42.41 402.628 42.41C401.182 42.41 399.9 42.6993 398.784 43.278C397.71 43.8153 396.78 44.5593 395.994 45.51C395.209 46.4193 394.61 47.4527 394.196 48.61C393.783 49.7673 393.535 50.9247 393.452 52.082Z" fill="white"/>
<rect x="50" y="35.5887" width="13.3269" height="19.8878" fill="#A88B41"/>
<rect x="50" y="59.6634" width="13.3269" height="14.6542" fill="#A88B41"/>
<path d="M50 77.9811H63.3269V81.8315C63.3269 84.0407 61.5361 85.8315 59.3269 85.8315H50V77.9811Z" fill="#A88B41"/>
</svg>
