<svg width="413" height="96" viewBox="0 0 413 96" fill="none" xmlns="http://www.w3.org/2000/svg">
<path d="M102.948 52.774C102.266 52.774 101.894 53.208 101.956 53.828L102.762 62.384C102.824 62.818 103.196 63.066 103.754 63.066H109.458V66.662C108.776 67.406 107.226 67.84 104.932 67.84C99.228 67.84 95.384 63.748 95.384 57.548C95.384 51.472 99.228 47.38 104.932 47.38C108.032 47.38 111.318 48.186 113.86 49.55C114.418 49.674 114.852 49.488 115.038 49.054L118.138 39.94C118.262 39.568 118.076 39.072 117.58 38.824C113.984 36.592 109.148 35.228 104.56 35.228C91.168 35.228 82.24 44.156 82.24 57.548C82.24 70.94 91.168 79.868 104.56 79.868C110.512 79.868 116.216 78.008 119.936 74.846C120.37 74.474 120.68 73.916 120.68 73.358V53.642C120.68 53.208 120.246 52.774 119.75 52.774H102.948ZM109.83 65.98V65.732V65.98ZM142.809 44.9C139.895 44.9 137.167 46.016 135.307 47.876L134.625 45.83C134.439 45.334 134.129 44.9 133.633 44.9H125.697C125.201 44.9 124.767 45.334 124.767 45.768V78.07C124.767 78.566 125.201 79 125.697 79H136.609C137.105 79 137.539 78.566 137.539 78.07V57.3C138.345 55.75 140.453 54.696 142.809 54.696H144.421C144.917 54.696 145.289 54.324 145.289 53.828V45.768C145.289 45.272 144.917 44.9 144.421 44.9H142.809ZM176.038 67.84C175.914 67.406 175.542 67.158 175.108 67.344C172.318 68.646 168.784 69.39 165.622 69.39C160.414 69.39 160.414 65.484 160.414 65.484H180.316C180.874 65.484 181.184 65.236 181.246 64.74C181.432 63.81 181.494 62.88 181.494 61.95C181.494 50.666 175.418 44.032 165.126 44.032C154.338 44.032 147.146 51.224 147.146 62.012C147.146 72.738 154.462 79.93 165.436 79.93C170.21 79.93 174.984 78.628 178.27 76.458C178.704 76.21 178.828 75.962 178.704 75.528L176.038 67.84ZM160.352 58.974C160.352 56.246 162.212 54.448 165.002 54.448C167.482 54.448 169.156 56.246 169.156 58.974H160.352ZM212.851 67.84C212.727 67.406 212.355 67.158 211.921 67.344C209.131 68.646 205.597 69.39 202.435 69.39C197.227 69.39 197.227 65.484 197.227 65.484H217.129C217.687 65.484 217.997 65.236 218.059 64.74C218.245 63.81 218.307 62.88 218.307 61.95C218.307 50.666 212.231 44.032 201.939 44.032C191.151 44.032 183.959 51.224 183.959 62.012C183.959 72.738 191.275 79.93 202.249 79.93C207.023 79.93 211.797 78.628 215.083 76.458C215.517 76.21 215.641 75.962 215.517 75.528L212.851 67.84ZM197.165 58.974C197.165 56.246 199.025 54.448 201.815 54.448C204.295 54.448 205.969 56.246 205.969 58.974H197.165ZM231.683 45.52C231.497 45.086 231.125 44.9 230.691 44.9H222.631C222.073 44.9 221.763 45.21 221.763 45.768V78.07C221.763 78.566 222.197 79 222.693 79H233.605C234.101 79 234.535 78.566 234.535 78.07V59.098C234.535 59.098 235.093 55.626 238.627 55.626C240.549 55.626 241.665 57.052 241.665 59.532V78.07C241.603 78.566 242.037 79 242.533 79H253.445C253.941 79 254.375 78.566 254.375 78.07V57.61C254.375 47.938 249.787 44.032 241.355 44.032C238.069 44.032 234.349 45.024 232.179 46.76L231.683 45.52ZM288.463 66.972C288.215 66.414 287.781 66.228 287.285 66.476C284.991 67.778 282.759 68.212 280.093 68.212C274.823 68.212 270.607 63.438 270.607 57.61C270.607 51.782 274.823 47.008 280.093 47.008C282.759 47.008 284.991 47.442 287.285 48.744C287.781 48.992 288.215 48.806 288.463 48.248L292.369 40.002C292.555 39.568 292.307 39.258 291.811 38.886C288.897 36.716 283.689 35.29 278.791 35.29C267.011 35.29 257.463 45.272 257.463 57.61C257.463 69.948 267.011 79.93 278.791 79.93C283.689 79.93 288.897 78.504 291.811 76.334C292.307 75.962 292.555 75.652 292.369 75.218L288.463 66.972ZM313.915 44.9C311.001 44.9 308.273 46.016 306.413 47.876L305.731 45.83C305.545 45.334 305.235 44.9 304.739 44.9H296.803C296.307 44.9 295.873 45.334 295.873 45.768V78.07C295.873 78.566 296.307 79 296.803 79H307.715C308.211 79 308.645 78.566 308.645 78.07V57.3C309.451 55.75 311.559 54.696 313.915 54.696H315.527C316.023 54.696 316.395 54.324 316.395 53.828V45.768C316.395 45.272 316.023 44.9 315.527 44.9H313.915ZM324.404 56.37C324.59 56.742 324.962 56.866 325.334 56.68C327.38 55.502 330.294 54.696 332.712 54.696C335.564 54.696 337.486 56.432 337.486 59.098V61.516C335.44 59.594 332.278 58.354 328.992 58.354C322.234 58.354 317.708 62.694 317.646 69.142C317.584 75.59 322.606 79.93 330.17 79.93C334.448 79.93 338.044 78.566 340.09 76.21L340.524 78.07C340.648 78.628 341.144 79 341.702 79H349.328C349.886 79 350.258 78.628 350.258 78.07V59.098C350.258 50.046 343.996 44.032 334.572 44.032C329.86 44.032 324.466 45.458 321.118 47.566C320.746 47.876 320.622 48.31 320.808 48.744L324.404 56.37ZM334.51 66.91C336.308 66.91 337.548 67.778 337.548 69.142C337.548 70.506 336.308 71.374 334.51 71.374C332.712 71.374 331.472 70.506 331.472 69.142C331.472 67.778 332.712 66.91 334.51 66.91ZM370.286 44.9V37.088C370.286 36.654 369.852 36.158 369.356 36.22L358.444 37.274C357.948 37.336 357.514 37.708 357.514 38.142V44.9H353.98C353.546 44.9 353.112 45.272 353.112 45.83V51.844C353.112 52.34 353.546 52.712 353.98 52.712H357.514V78.07C357.514 78.566 357.948 79 358.444 79H369.356C369.852 79 370.286 78.566 370.286 78.07V52.712H374.254C374.75 52.712 375.122 52.278 375.184 51.782L375.866 45.768C375.866 45.272 375.494 44.9 374.936 44.9H370.286ZM405.39 67.84C405.266 67.406 404.894 67.158 404.46 67.344C401.67 68.646 398.136 69.39 394.974 69.39C389.766 69.39 389.766 65.484 389.766 65.484H409.668C410.226 65.484 410.536 65.236 410.598 64.74C410.784 63.81 410.846 62.88 410.846 61.95C410.846 50.666 404.77 44.032 394.478 44.032C383.69 44.032 376.498 51.224 376.498 62.012C376.498 72.738 383.814 79.93 394.788 79.93C399.562 79.93 404.336 78.628 407.622 76.458C408.056 76.21 408.18 75.962 408.056 75.528L405.39 67.84ZM389.704 58.974C389.704 56.246 391.564 54.448 394.354 54.448C396.834 54.448 398.508 56.246 398.508 58.974H389.704Z" fill="#1E9B58"/>
<path d="M59.2847 20.0911L51.9742 15.8703C48.8469 14.0648 44.8955 16.0682 44.5037 19.6581L43.2006 31.5999C42.7031 36.159 48.0935 38.9266 51.5085 35.8654L60.1221 28.1443C62.655 25.8739 62.2305 21.7918 59.2847 20.0911Z" fill="#DD6C03"/>
<path d="M55.7088 12.383C56.5941 14.9618 59.4135 16.3227 61.9832 15.4115C65.9258 14.0137 66.4187 8.63772 62.7961 6.54621C58.8714 4.28026 54.2373 8.0967 55.7088 12.383Z" fill="#1E9B58"/>
<circle cx="13.0841" cy="32.4485" r="13.0841" fill="#12D66C"/>
<circle cx="23.028" cy="25.6448" r="13.0841" fill="#2ABD6E"/>
<circle cx="31.9251" cy="35.5887" r="13.0841" fill="#45D687"/>
<rect y="35.5887" width="63.3269" height="19.8878" fill="#C8A64F"/>
<rect y="59.6634" width="63.3269" height="14.6542" fill="#C8A64F"/>
<rect y="77.9811" width="63.3269" height="7.85045" fill="#C8A64F"/>
<circle cx="35.8504" cy="11.2523" r="3.92522" fill="#DD4141"/>
</svg>
